<svg id="visual" viewBox="0 0 960 540" width="960" height="540" xmlns="http://www.w3.org/2000/svg" xmlns:xlink="http://www.w3.org/1999/xlink" version="1.1"><rect x="0" y="0" width="960" height="540" fill="#000"></rect><path d="M0 227L20 217.5C40 208 80 189 120 187C160 185 200 200 240 214.3C280 228.7 320 242.3 360 236.8C400 231.3 440 206.7 480 191C520 175.3 560 168.7 600 160C640 151.3 680 140.7 720 139.7C760 138.7 800 147.3 840 168.2C880 189 920 222 940 238.5L960 255L960 541L940 541C920 541 880 541 840 541C800 541 760 541 720 541C680 541 640 541 600 541C560 541 520 541 480 541C440 541 400 541 360 541C320 541 280 541 240 541C200 541 160 541 120 541C80 541 40 541 20 541L0 541Z" fill="#484dd6"></path><path d="M0 233L20 238.3C40 243.7 80 254.3 120 265.8C160 277.3 200 289.7 240 296C280 302.3 320 302.7 360 280.8C400 259 440 215 480 201C520 187 560 203 600 213.7C640 224.3 680 229.7 720 243.2C760 256.7 800 278.3 840 273.5C880 268.7 920 237.3 940 221.7L960 206L960 541L940 541C920 541 880 541 840 541C800 541 760 541 720 541C680 541 640 541 600 541C560 541 520 541 480 541C440 541 400 541 360 541C320 541 280 541 240 541C200 541 160 541 120 541C80 541 40 541 20 541L0 541Z" fill="#4a71e9"></path><path d="M0 219L20 222.8C40 226.7 80 234.3 120 244.2C160 254 200 266 240 262.8C280 259.7 320 241.3 360 243.3C400 245.3 440 267.7 480 284.3C520 301 560 312 600 316.2C640 320.3 680 317.7 720 312C760 306.3 800 297.7 840 304C880 310.3 920 331.7 940 342.3L960 353L960 541L940 541C920 541 880 541 840 541C800 541 760 541 720 541C680 541 640 541 600 541C560 541 520 541 480 541C440 541 400 541 360 541C320 541 280 541 240 541C200 541 160 541 120 541C80 541 40 541 20 541L0 541Z" fill="#5b92f7"></path><path d="M0 289L20 285.2C40 281.3 80 273.7 120 280.2C160 286.7 200 307.3 240 323.7C280 340 320 352 360 344.2C400 336.3 440 308.7 480 291.2C520 273.7 560 266.3 600 269.8C640 273.3 680 287.7 720 292C760 296.3 800 290.7 840 295C880 299.3 920 313.7 940 320.8L960 328L960 541L940 541C920 541 880 541 840 541C800 541 760 541 720 541C680 541 640 541 600 541C560 541 520 541 480 541C440 541 400 541 360 541C320 541 280 541 240 541C200 541 160 541 120 541C80 541 40 541 20 541L0 541Z" fill="#72abff"></path><path d="M0 315L20 319.5C40 324 80 333 120 332.3C160 331.7 200 321.3 240 329.5C280 337.7 320 364.3 360 377.8C400 391.3 440 391.7 480 378.2C520 364.7 560 337.3 600 327.7C640 318 680 326 720 325.8C760 325.7 800 317.3 840 316.7C880 316 920 323 940 326.5L960 330L960 541L940 541C920 541 880 541 840 541C800 541 760 541 720 541C680 541 640 541 600 541C560 541 520 541 480 541C440 541 400 541 360 541C320 541 280 541 240 541C200 541 160 541 120 541C80 541 40 541 20 541L0 541Z" fill="#72abff"></path><path d="M0 439L20 441.2C40 443.3 80 447.7 120 444.8C160 442 200 432 240 431.8C280 431.7 320 441.3 360 441.2C400 441 440 431 480 420.5C520 410 560 399 600 393C640 387 680 386 720 384.2C760 382.3 800 379.7 840 377.5C880 375.3 920 373.7 940 372.8L960 372L960 541L940 541C920 541 880 541 840 541C800 541 760 541 720 541C680 541 640 541 600 541C560 541 520 541 480 541C440 541 400 541 360 541C320 541 280 541 240 541C200 541 160 541 120 541C80 541 40 541 20 541L0 541Z" fill="#5b92f7"></path><path d="M0 408L20 409.5C40 411 80 414 120 415.2C160 416.3 200 415.7 240 420.7C280 425.7 320 436.3 360 440.5C400 444.7 440 442.3 480 444.2C520 446 560 452 600 450.3C640 448.7 680 439.3 720 435.8C760 432.3 800 434.7 840 433.5C880 432.3 920 427.7 940 425.3L960 423L960 541L940 541C920 541 880 541 840 541C800 541 760 541 720 541C680 541 640 541 600 541C560 541 520 541 480 541C440 541 400 541 360 541C320 541 280 541 240 541C200 541 160 541 120 541C80 541 40 541 20 541L0 541Z" fill="#4a71e9"></path><path d="M0 511L20 510C40 509 80 507 120 505.8C160 504.7 200 504.3 240 503C280 501.7 320 499.3 360 501.3C400 503.3 440 509.7 480 508.3C520 507 560 498 600 491.8C640 485.7 680 482.3 720 481.7C760 481 800 483 840 480.5C880 478 920 471 940 467.5L960 464L960 541L940 541C920 541 880 541 840 541C800 541 760 541 720 541C680 541 640 541 600 541C560 541 520 541 480 541C440 541 400 541 360 541C320 541 280 541 240 541C200 541 160 541 120 541C80 541 40 541 20 541L0 541Z" fill="#484dd6"></path></svg>