<?xml version="1.0" standalone="no"?>
<svg xmlns:xlink="http://www.w3.org/1999/xlink" id="wave" style="transform:rotate(0deg); transition: 0.3s" viewBox="0 0 1440 310" version="1.1" xmlns="http://www.w3.org/2000/svg"><defs><linearGradient id="sw-gradient-0" x1="0" x2="0" y1="1" y2="0"><stop stop-color="rgba(128.243, 114, 255, 1)" offset="0%"/><stop stop-color="rgba(49, 195.681, 255, 1)" offset="100%"/></linearGradient></defs><path style="transform:translate(0, 0px); opacity:1" fill="url(#sw-gradient-0)" d="M0,93L10,87.8C20,83,40,72,60,82.7C80,93,100,124,120,129.2C140,134,160,114,180,113.7C200,114,220,134,240,165.3C260,196,280,238,300,227.3C320,217,340,155,360,118.8C380,83,400,72,420,82.7C440,93,460,124,480,124C500,124,520,93,540,82.7C560,72,580,83,600,82.7C620,83,640,72,660,103.3C680,134,700,207,720,242.8C740,279,760,279,780,279C800,279,820,279,840,237.7C860,196,880,114,900,113.7C920,114,940,196,960,191.2C980,186,1000,93,1020,67.2C1040,41,1060,83,1080,87.8C1100,93,1120,62,1140,72.3C1160,83,1180,134,1200,144.7C1220,155,1240,124,1260,118.8C1280,114,1300,134,1320,124C1340,114,1360,72,1380,51.7C1400,31,1420,31,1430,31L1440,31L1440,310L1430,310C1420,310,1400,310,1380,310C1360,310,1340,310,1320,310C1300,310,1280,310,1260,310C1240,310,1220,310,1200,310C1180,310,1160,310,1140,310C1120,310,1100,310,1080,310C1060,310,1040,310,1020,310C1000,310,980,310,960,310C940,310,920,310,900,310C880,310,860,310,840,310C820,310,800,310,780,310C760,310,740,310,720,310C700,310,680,310,660,310C640,310,620,310,600,310C580,310,560,310,540,310C520,310,500,310,480,310C460,310,440,310,420,310C400,310,380,310,360,310C340,310,320,310,300,310C280,310,260,310,240,310C220,310,200,310,180,310C160,310,140,310,120,310C100,310,80,310,60,310C40,310,20,310,10,310L0,310Z"/></svg>