<?xml version="1.0" standalone="no"?>
<svg xmlns:xlink="http://www.w3.org/1999/xlink" id="wave" style="transform:rotate(0deg); transition: 0.3s" viewBox="0 0 1440 180" version="1.1" xmlns="http://www.w3.org/2000/svg"><defs><linearGradient id="sw-gradient-0" x1="0" x2="0" y1="1" y2="0"><stop stop-color="rgba(114, 171, 255, 1)" offset="0%"/><stop stop-color="rgba(49, 238, 255, 1)" offset="100%"/></linearGradient></defs><path style="transform:translate(0, 0px); opacity:1" fill="url(#sw-gradient-0)" d="M0,0L10,3C20,6,40,12,60,33C80,54,100,90,120,93C140,96,160,66,180,60C200,54,220,72,240,87C260,102,280,114,300,120C320,126,340,126,360,126C380,126,400,126,420,105C440,84,460,42,480,45C500,48,520,96,540,114C560,132,580,120,600,111C620,102,640,96,660,84C680,72,700,54,720,66C740,78,760,120,780,135C800,150,820,138,840,123C860,108,880,90,900,93C920,96,940,120,960,114C980,108,1000,72,1020,57C1040,42,1060,48,1080,63C1100,78,1120,102,1140,102C1160,102,1180,78,1200,75C1220,72,1240,90,1260,84C1280,78,1300,48,1320,36C1340,24,1360,30,1380,36C1400,42,1420,48,1430,51L1440,54L1440,180L1430,180C1420,180,1400,180,1380,180C1360,180,1340,180,1320,180C1300,180,1280,180,1260,180C1240,180,1220,180,1200,180C1180,180,1160,180,1140,180C1120,180,1100,180,1080,180C1060,180,1040,180,1020,180C1000,180,980,180,960,180C940,180,920,180,900,180C880,180,860,180,840,180C820,180,800,180,780,180C760,180,740,180,720,180C700,180,680,180,660,180C640,180,620,180,600,180C580,180,560,180,540,180C520,180,500,180,480,180C460,180,440,180,420,180C400,180,380,180,360,180C340,180,320,180,300,180C280,180,260,180,240,180C220,180,200,180,180,180C160,180,140,180,120,180C100,180,80,180,60,180C40,180,20,180,10,180L0,180Z"/></svg>