<?xml version="1.0" standalone="no"?>
<svg xmlns:xlink="http://www.w3.org/1999/xlink" id="wave" style="transform:rotate(0deg); transition: 0.3s" viewBox="0 0 1440 100" version="1.1" xmlns="http://www.w3.org/2000/svg"><defs><linearGradient id="sw-gradient-0" x1="0" x2="0" y1="1" y2="0"><stop stop-color="rgba(114, 171, 255, 1)" offset="0%"/><stop stop-color="rgba(49, 238, 255, 1)" offset="100%"/></linearGradient></defs><path style="transform:translate(0, 0px); opacity:1" fill="url(#sw-gradient-0)" d="M0,40L10,46.7C20,53,40,67,60,65C80,63,100,47,120,35C140,23,160,17,180,13.3C200,10,220,10,240,21.7C260,33,280,57,300,70C320,83,340,87,360,80C380,73,400,57,420,46.7C440,37,460,33,480,26.7C500,20,520,10,540,20C560,30,580,60,600,73.3C620,87,640,83,660,76.7C680,70,700,60,720,46.7C740,33,760,17,780,18.3C800,20,820,40,840,43.3C860,47,880,33,900,23.3C920,13,940,7,960,15C980,23,1000,47,1020,53.3C1040,60,1060,50,1080,40C1100,30,1120,20,1140,18.3C1160,17,1180,23,1200,35C1220,47,1240,63,1260,66.7C1280,70,1300,60,1320,56.7C1340,53,1360,57,1380,51.7C1400,47,1420,33,1430,26.7L1440,20L1440,100L1430,100C1420,100,1400,100,1380,100C1360,100,1340,100,1320,100C1300,100,1280,100,1260,100C1240,100,1220,100,1200,100C1180,100,1160,100,1140,100C1120,100,1100,100,1080,100C1060,100,1040,100,1020,100C1000,100,980,100,960,100C940,100,920,100,900,100C880,100,860,100,840,100C820,100,800,100,780,100C760,100,740,100,720,100C700,100,680,100,660,100C640,100,620,100,600,100C580,100,560,100,540,100C520,100,500,100,480,100C460,100,440,100,420,100C400,100,380,100,360,100C340,100,320,100,300,100C280,100,260,100,240,100C220,100,200,100,180,100C160,100,140,100,120,100C100,100,80,100,60,100C40,100,20,100,10,100L0,100Z"/></svg>